<svg width="12" height="12" viewBox="0 0 12 12" fill="none" xmlns="http://www.w3.org/2000/svg">
<path d="M12 6.03318C12 6.61809 11.5258 7.09226 10.9409 7.09226L3.53989 7.09226L5.84182 10.3573C6.37459 11.113 5.82735 12 4.82834 12C4.32043 12 3.82757 11.7584 3.55398 11.3754L0.419228 6.98714C0.367209 6.91432 0.324963 6.83943 0.292185 6.76361C0.111142 6.57358 -1.23778e-08 6.31636 0 6.03318C1.13972e-08 5.77245 0.0942145 5.53373 0.250455 5.3492C0.285553 5.23487 0.341478 5.12141 0.419233 5.01256L3.55379 0.62452C3.8274 0.241499 4.32028 -5.31689e-05 4.82823 -6.10351e-05C5.82732 -7.12107e-05 6.37459 0.886973 5.84176 1.64272L3.49298 4.97409L10.9409 4.97409C11.5258 4.97409 12 5.44826 12 6.03318Z" fill="#BBBFDB"/>
</svg>
